<?xml version="1.0" encoding="UTF-8"?>
<!-- Generator: visioncortex VTracer 0.6.3 -->
<svg version="1.1" xmlns="http://www.w3.org/2000/svg" width="512" height="512">
<path d="M0 0 C24.13 20.6 41.81 48.99 45 81 C45.9 96.64 46.32 112.83 42 128 C41.66 129.23 41.32 130.45 40.97 131.72 C33.16 157.27 17.36 175.76 -1.18 194.38 C-2.25 195.45 -3.32 196.53 -4.39 197.61 C-7.86 201.1 -11.32 204.58 -14.79 208.07 C-16 209.28 -17.21 210.49 -18.41 211.7 C-23.44 216.75 -28.46 221.79 -33.49 226.83 C-40.64 234 -47.78 241.17 -54.91 248.36 C-59.96 253.44 -65.01 258.52 -70.08 263.59 C-73.09 266.6 -76.09 269.62 -79.09 272.65 C-99.45 293.22 -119.57 310.12 -148 318 C-149.12 318.32 -150.25 318.64 -151.41 318.97 C-183.27 326.45 -217.54 320.17 -245.17 303.17 C-262.16 292.33 -274.88 278.54 -286 262 C-283.65 256.33 -278.73 252.36 -274.46 248.09 C-272.89 246.52 -271.34 244.92 -269.78 243.33 C-261.7 235.16 -254.77 229.89 -242.81 229.75 C-241.54 229.72 -240.27 229.7 -238.96 229.67 C-230.53 230.37 -225.52 233.82 -219.31 239.31 C-204.17 252.15 -188.51 255.49 -169 254 C-164.35 253.21 -160.3 251.93 -156 250 C-154.57 249.36 -154.57 249.36 -153.11 248.7 C-146.88 245.47 -141.97 241.34 -136.92 236.53 C-136.23 235.88 -135.55 235.23 -134.84 234.56 C-125.92 226.09 -117.21 217.39 -108.5 208.7 C-107.05 207.25 -105.59 205.8 -104.14 204.35 C-99.55 199.78 -94.97 195.21 -90.39 190.63 C-85.16 185.41 -79.92 180.19 -74.68 174.97 C-70.58 170.9 -66.49 166.82 -62.41 162.73 C-59.99 160.31 -57.56 157.89 -55.13 155.48 C-30.52 131.63 -30.52 131.63 -21.62 99.49 C-21.65 82.38 -25.82 67.8 -37.81 55.06 C-51.24 42.42 -66.69 38.25 -84.65 38.62 C-101.76 39.47 -114.62 48.94 -126.2 60.84 C-127.61 62.26 -129.01 63.68 -130.42 65.1 C-132.36 67.06 -134.29 69.03 -136.22 71.01 C-139.61 74.46 -143.02 77.9 -146.42 81.34 C-148.22 83.17 -150.02 85 -151.82 86.83 C-156.17 91.25 -160.6 95.49 -165.31 99.52 C-167.36 101.32 -169.25 103.22 -171.11 105.22 C-171.78 105.92 -172.45 106.63 -173.15 107.35 C-174.53 108.81 -175.9 110.27 -177.26 111.74 C-177.93 112.44 -178.6 113.13 -179.29 113.84 C-179.89 114.47 -180.48 115.11 -181.09 115.76 C-183 117 -183 117 -185.47 116.78 C-186.3 116.52 -187.14 116.26 -188 116 C-188.7 115.8 -189.41 115.59 -190.13 115.38 C-190.84 115.16 -191.54 114.93 -192.27 114.7 C-216.64 106.99 -239.53 105.24 -265 107 C-260.06 101.06 -254.75 95.58 -249.3 90.11 C-248.33 89.13 -247.36 88.15 -246.39 87.17 C-243.23 83.98 -240.05 80.8 -236.88 77.61 C-235.78 76.5 -234.68 75.4 -233.58 74.29 C-229 69.69 -224.42 65.09 -219.83 60.49 C-213.3 53.94 -206.78 47.39 -200.27 40.82 C-195.66 36.18 -191.05 31.55 -186.43 26.92 C-183.69 24.17 -180.94 21.42 -178.21 18.65 C-158.41 -1.38 -138.58 -17.35 -111 -25 C-109.88 -25.32 -108.75 -25.64 -107.59 -25.97 C-69.67 -34.87 -29.73 -24.53 0 0 Z " fill="#FF9842" transform="translate(467,28)"/>
<path d="M0 0 C13.29 10.37 23.36 21.68 32.69 35.56 C30.34 41.24 25.42 45.2 21.15 49.47 C19.58 51.05 18.02 52.64 16.47 54.23 C8.39 62.4 1.46 67.67 -10.5 67.81 C-11.77 67.84 -13.04 67.86 -14.36 67.89 C-22.78 67.19 -27.79 63.74 -34 58.25 C-48.4 46.04 -63.1 42.4 -81.72 43.32 C-95.67 44.61 -106.94 52.19 -116.85 61.53 C-117.5 62.13 -118.14 62.73 -118.8 63.36 C-127.6 71.66 -136.15 80.22 -144.71 88.76 C-146.17 90.21 -147.62 91.67 -149.08 93.12 C-153.67 97.69 -158.26 102.27 -162.84 106.85 C-168.08 112.09 -173.33 117.32 -178.58 122.54 C-182.68 126.62 -186.77 130.7 -190.86 134.79 C-193.29 137.21 -195.72 139.64 -198.15 142.05 C-222.78 165.91 -222.78 165.91 -231.69 198.07 C-231.66 214.6 -227.75 229.33 -216.21 241.85 C-201.52 255.09 -185.41 259.59 -165.97 258.78 C-148.05 257.29 -135.58 245.41 -123.75 233.12 C-121.99 231.31 -120.23 229.51 -118.47 227.7 C-117.38 226.59 -116.3 225.47 -115.22 224.35 C-113.96 223.05 -112.64 221.8 -111.31 220.56 C-110.65 220.56 -109.99 220.56 -109.31 220.56 C-108.98 219.57 -108.65 218.58 -108.31 217.56 C-106.72 215.99 -106.72 215.99 -104.7 214.33 C-100.61 210.86 -96.89 207.16 -93.18 203.28 C-91.87 201.93 -90.55 200.58 -89.24 199.23 C-87.2 197.14 -85.16 195.04 -83.14 192.92 C-81.17 190.86 -79.18 188.82 -77.18 186.78 C-76.58 186.14 -75.98 185.5 -75.36 184.84 C-73.74 183.21 -72.26 181.79 -70.31 180.56 C-67.09 180.61 -67.09 180.61 -64.31 181.56 C-63.2 181.92 -62.09 182.28 -60.94 182.65 C-59.74 183.07 -58.54 183.5 -57.31 183.94 C-34.76 191.62 -11.9 192.11 11.69 190.56 C6.75 196.5 1.44 201.98 -4.01 207.45 C-4.98 208.43 -5.95 209.41 -6.92 210.39 C-10.09 213.58 -13.26 216.77 -16.43 219.95 C-17.53 221.06 -18.63 222.16 -19.73 223.27 C-24.31 227.87 -28.9 232.48 -33.48 237.07 C-40.01 243.62 -46.54 250.18 -53.05 256.74 C-57.65 261.38 -62.26 266.02 -66.88 270.64 C-69.63 273.39 -72.37 276.14 -75.1 278.91 C-94.91 298.94 -114.73 314.91 -142.31 322.56 C-143.44 322.88 -144.56 323.2 -145.72 323.53 C-177.58 331.01 -211.86 324.73 -239.48 307.73 C-261.92 293.42 -278.46 273.66 -289.31 249.56 C-289.8 248.51 -290.28 247.45 -290.78 246.36 C-300.46 223.38 -302.14 193.57 -295.31 169.56 C-294.97 168.34 -294.63 167.11 -294.28 165.84 C-286.47 140.28 -270.66 121.78 -252.1 103.17 C-251.02 102.09 -249.95 101.01 -248.88 99.93 C-245.41 96.44 -241.93 92.95 -238.45 89.46 C-237.24 88.25 -236.03 87.03 -234.82 85.82 C-229.14 80.12 -223.46 74.43 -217.78 68.73 C-211.26 62.21 -204.75 55.67 -198.25 49.13 C-193.19 44.04 -188.12 38.95 -183.05 33.88 C-180.03 30.86 -177.02 27.84 -174.01 24.81 C-171.19 21.96 -168.35 19.12 -165.51 16.28 C-164.47 15.25 -163.45 14.22 -162.42 13.18 C-153.02 3.66 -142.5 -5.02 -130.31 -10.75 C-129.65 -11.07 -128.99 -11.39 -128.31 -11.72 C-86.44 -31.55 -37.35 -27.27 0 0 Z " fill="#FF9842" transform="translate(298.3125,186.4375)"/>
</svg>
